<svg xmlns="http://www.w3.org/2000/svg" viewBox="0 0 64 64" role="img" aria-label="当当日记">
  <rect width="64" height="64" rx="14" fill="#eef8f5"/>
  <path d="M42.5 14.5c-1.2 9.9-8.1 17.2-18.1 18.4 2.4 7.4 9.3 12.7 17.5 12.7 3.3 0 6.4-.9 9.1-2.4-3.4 5.2-9.2 8.6-15.9 8.6-10.5 0-19-8.5-19-19 0-8.6 5.7-15.8 13.5-18.2-1.2 2.5-1.8 5.3-1.8 8.2 6.2-.8 11.3-4.9 14.7-8.3Z" fill="#2f8374"/>
  <circle cx="45" cy="25" r="4.5" fill="#f26f5e"/>
  <path d="M38 36h13a5 5 0 0 1 5 5v3H38v-8Z" fill="#ffffff" opacity=".86"/>
</svg>
